<svg xmlns="http://www.w3.org/2000/svg" viewBox="0 0 1000 1000">
  <rect width="1000" height="1000" fill="#f2f3f6"/>
  <path d="M 89.333 412.0 L 116.32 634.933 L 152.693 758.133 L 204.32 822.667 L 470.667 869.6 L 752.267 805.067 L 916.533 582.133 L 857.867 306.4 L 588.0 142.133 L 300.533 194.933 L 89.333 412.0" fill="none" stroke="#15161a" stroke-width="8" stroke-linecap="round" stroke-linejoin="round"/>
  <circle cx="177.333" cy="822.667" r="3" fill="#d3130b"><title>driver-4 @ 0 ms</title></circle>
  <circle cx="470.667" cy="881.333" r="3" fill="#d3130b"><title>driver-4 @ 1000 ms</title></circle>
  <circle cx="764.0" cy="822.667" r="3" fill="#d3130b"><title>driver-4 @ 2000 ms</title></circle>
  <circle cx="940.0" cy="588.0" r="3" fill="#d3130b"><title>driver-4 @ 3000 ms</title></circle>
  <circle cx="881.333" cy="294.667" r="3" fill="#d3130b"><title>driver-4 @ 4000 ms</title></circle>
  <circle cx="588.0" cy="118.667" r="3" fill="#d3130b"><title>driver-4 @ 5000 ms</title></circle>
  <circle cx="294.667" cy="177.333" r="3" fill="#d3130b"><title>driver-4 @ 6000 ms</title></circle>
  <circle cx="60.0" cy="412.0" r="3" fill="#d3130b"><title>driver-4 @ 7000 ms</title></circle>
  <circle cx="118.667" cy="646.667" r="3" fill="#d3130b"><title>driver-4 @ 8000 ms</title></circle>
  <circle cx="153.867" cy="764.0" r="3" fill="#d3130b"><title>driver-4 @ 9000 ms</title></circle>
  <circle cx="177.333" cy="822.667" r="3" fill="#d3130b"><title>driver-4 @ 10000 ms</title></circle>
  <circle cx="318.133" cy="846.133" r="3" fill="#1464f4"><title>driver-5 @ 500 ms</title></circle>
  <circle cx="435.467" cy="142.133" r="3" fill="#1464f4"><title>driver-5 @ 5500 ms</title></circle>
  <circle cx="165.6" cy="799.2" r="3" fill="#1464f4"><title>driver-5 @ 9500 ms</title></circle>
</svg>
